<?xml version="1.0" standalone="no"?>
<!DOCTYPE svg PUBLIC "-//W3C//DTD SVG 20010904//EN"
 "http://www.w3.org/TR/2001/REC-SVG-20010904/DTD/svg10.dtd">
<svg version="1.0" xmlns="http://www.w3.org/2000/svg"
 width="441.000000pt" height="441.000000pt" viewBox="0 0 441.000000 441.000000"
 preserveAspectRatio="xMidYMid meet">
<metadata>
Created by potrace 1.14, written by Peter Selinger 2001-2017
</metadata>
<g transform="translate(0.000000,441.000000) scale(0.100000,-0.100000)"
fill="#000000" stroke="none">
<path d="M1700 4392 c0 -5 11 -13 25 -16 14 -4 26 -7 27 -7 48 -13 89 -14 99
-2 7 7 9 16 6 19 -11 11 -157 17 -157 6z"/>
<path d="M1420 4333 c-236 -32 -447 -114 -552 -215 -31 -29 -61 -64 -68 -76
-6 -13 -14 -22 -16 -19 -2 2 13 48 35 103 22 54 38 100 35 103 -2 3 -22 -13
-44 -34 -59 -57 -82 -127 -86 -255 -3 -92 0 -120 26 -220 50 -188 128 -308
340 -521 189 -189 278 -259 332 -259 24 0 23 -18 -2 -22 -15 -2 6 -23 86 -86
154 -123 199 -188 218 -320 2 -18 14 -52 25 -74 11 -23 19 -42 18 -43 -61 -37
-83 -55 -108 -92 -30 -42 -30 -45 -11 -50 26 -6 36 -31 21 -49 -6 -8 -8 -25
-5 -38 8 -32 -28 -69 -58 -60 -32 10 -44 25 -64 84 -21 62 -20 61 -145 47 -98
-11 -258 -59 -255 -75 3 -26 -3 -32 -20 -21 -56 35 -371 -200 -519 -386 -75
-95 -179 -269 -198 -334 -7 -22 -5 -23 18 -17 15 3 29 1 33 -5 9 -15 -23 -39
-53 -39 -24 0 -38 -22 -47 -75 -3 -14 -8 -30 -11 -35 -4 -6 -15 -50 -26 -98
l-19 -87 6 122 c3 68 9 137 14 153 8 27 6 31 -8 28 -32 -6 -53 -111 -54 -269
0 -152 49 -322 136 -474 22 -38 46 -77 53 -85 7 -8 26 -32 43 -54 16 -21 30
-36 30 -32 0 4 -11 22 -25 40 -32 42 -89 168 -105 231 -6 28 -14 59 -17 70 -3
11 -6 72 -8 135 -3 116 10 218 39 310 17 50 16 42 -4 -85 -12 -75 -13 -259 -1
-305 l9 -35 2 40 c3 41 3 46 14 125 8 59 23 120 31 128 3 3 4 -12 1 -33 -3
-22 -8 -77 -10 -121 -4 -77 -3 -81 15 -77 11 3 21 15 24 27 3 11 14 64 25 116
12 52 24 97 27 100 3 3 2 -8 -1 -25 -6 -30 -11 -59 -23 -145 -3 -25 -7 -52 -8
-60 -1 -8 2 -21 8 -27 6 -9 5 -18 -4 -29 -9 -11 -13 -46 -12 -116 1 -55 0 -98
-2 -96 -7 6 -17 61 -23 127 -9 86 -29 93 -24 9 5 -93 29 -196 57 -254 14 -28
25 -55 25 -60 0 -5 10 -18 22 -28 13 -10 38 -33 56 -50 l33 -31 -25 56 c-42
95 -51 212 -29 359 15 95 44 213 51 206 2 -3 -1 -26 -7 -51 -19 -76 -26 -154
-26 -290 1 -105 5 -143 22 -200 20 -63 78 -154 90 -141 3 3 26 -9 51 -26 42
-29 47 -25 17 12 -19 24 -44 94 -52 147 -9 59 -9 211 -1 278 15 114 21 145 29
145 5 0 7 -6 4 -12 -14 -45 -23 -326 -11 -379 3 -13 7 -38 10 -56 8 -58 36
-128 64 -161 17 -20 79 -57 167 -100 161 -80 237 -108 318 -117 53 -6 57 -6
57 14 0 12 1 24 3 28 1 4 -28 14 -65 23 -79 19 -103 36 -38 26 181 -27 231
-16 304 65 46 51 92 135 102 187 5 24 2 30 -18 37 l-23 7 25 7 c29 7 27 -1 36
142 9 147 6 403 -10 804 -3 80 -2 90 5 50 18 -106 30 -298 30 -497 l0 -146 27
14 c15 8 35 14 46 14 17 0 18 6 12 82 -7 83 -24 244 -31 284 -2 12 -6 48 -10
80 -9 79 -14 94 -31 94 -8 0 -14 6 -15 13 0 6 -2 22 -3 34 -2 15 2 19 12 15
12 -4 14 1 9 29 -30 164 -27 238 12 297 17 26 38 61 47 78 14 27 24 33 64 38
44 6 166 44 146 45 -24 2 -192 -34 -198 -42 -19 -29 -168 102 -168 147 0 23 5
21 90 -37 83 -56 94 -60 145 -60 127 1 268 119 277 231 4 49 13 29 16 -35 2
-49 -1 -64 -24 -99 -15 -23 -45 -53 -67 -68 -48 -30 -42 -34 11 -7 119 61 158
210 96 365 -31 78 -49 96 -40 40 3 -22 8 -66 11 -99 4 -50 3 -55 -5 -28 -6 18
-39 74 -74 125 -48 70 -71 96 -97 106 -34 12 -33 13 18 8 59 -6 116 -32 168
-77 35 -31 36 -31 57 -13 38 34 109 109 129 137 17 23 18 27 5 27 -9 0 -16 7
-16 16 0 13 -8 11 -37 -11 l-38 -28 31 34 c45 50 80 99 114 160 16 30 30 47
30 39 0 -19 -47 -120 -66 -141 -12 -13 -12 -18 0 -34 12 -17 16 -13 49 42 68
118 133 309 152 454 3 24 8 60 10 79 11 77 5 294 -10 395 -52 346 -199 612
-426 766 -76 51 -173 93 -196 84 -16 -6 -15 -8 7 -21 l25 -14 -26 6 c-15 3
-30 1 -33 -5 -14 -22 -86 -10 -86 14 0 7 -16 15 -35 18 -61 10 -285 4 -385
-10z m106 -146 c8 3 11 10 7 17 -16 24 78 -57 137 -121 90 -96 171 -228 213
-346 6 -15 10 -16 27 -5 17 11 25 10 48 -2 35 -20 36 -46 2 -43 -53 4 -70 8
-70 14 0 4 -29 59 -65 123 -87 152 -188 288 -258 345 -14 11 -17 11 -17 -1 0
-8 8 -23 18 -34 44 -48 84 -107 118 -170 44 -82 41 -79 -66 54 -45 56 -86 102
-91 102 -5 0 -26 -7 -45 -15 l-36 -15 23 -32 c13 -18 26 -35 29 -38 11 -9 85
-121 144 -218 31 -51 63 -104 72 -117 9 -14 14 -25 11 -25 -3 0 -31 42 -63 93
-98 159 -153 241 -190 282 -33 39 -34 39 -30 13 3 -20 0 -28 -10 -28 -8 0 -14
3 -15 8 -4 52 -12 71 -39 94 -39 35 -39 46 0 18 17 -12 30 -17 30 -11 0 6 19
11 43 11 24 0 47 3 51 7 3 4 -11 25 -31 46 l-38 40 39 -26 c21 -14 45 -23 52
-20z m486 -52 c38 -40 123 -155 115 -155 -3 0 -24 26 -48 58 -23 31 -72 89
-108 127 -36 39 -50 57 -31 40 19 -16 52 -48 72 -70z m-224 -24 c40 -42 85
-102 107 -141 13 -24 0 -10 -49 55 -26 33 -77 91 -114 130 -37 38 -49 54 -27
35 22 -18 60 -54 83 -79z m62 64 c19 -19 32 -35 29 -35 -3 0 -20 16 -39 35
-19 19 -32 35 -29 35 3 0 20 -16 39 -35z m330 -106 c48 -69 105 -182 159 -313
42 -102 51 -132 25 -83 -14 26 -19 28 -57 23 -23 -4 -59 -10 -79 -15 -37 -9
-38 -8 -38 18 0 56 33 70 93 39 70 -35 70 -38 -33 172 -72 145 -96 189 -123
220 -16 18 -17 21 -3 10 10 -8 35 -40 56 -71z m-227 8 c17 -11 27 -26 27 -41
0 -13 7 -29 16 -37 25 -21 136 -216 161 -284 6 -15 -15 15 -87 128 -98 154
-109 168 -134 166 -60 -4 -76 16 -34 45 l22 16 -24 32 -23 33 24 -21 c13 -11
36 -28 52 -37z m-473 -182 c12 -21 -32 24 -114 115 -34 37 -25 31 26 -20 42
-41 82 -84 88 -95z m-613 128 c-2 -23 2 -27 18 -25 11 1 30 8 43 14 17 9 25 9
34 0 15 -15 -9 -45 -29 -38 -11 5 -13 0 -8 -17 12 -38 74 -145 126 -215 l49
-67 -60 65 c-60 64 -120 165 -120 202 0 23 -9 22 -38 -2 -22 -19 -22 -19 -7
-87 35 -147 72 -272 87 -290 6 -8 7 -13 1 -13 -25 0 -87 165 -99 265 -4 33 -8
65 -9 70 -1 6 -3 19 -3 30 -2 13 -5 16 -13 8 -14 -14 -14 -145 0 -205 37 -161
172 -353 367 -520 216 -185 248 -210 252 -198 2 6 8 8 12 5 5 -3 7 -12 4 -20
-3 -7 4 -18 16 -25 12 -6 19 -14 16 -17 -8 -8 -335 258 -434 352 -224 214
-311 414 -268 613 5 21 4 32 -3 32 -20 0 -11 29 12 45 13 8 29 26 35 40 15 33
21 32 19 -2z m497 -155 c24 -31 46 -54 50 -51 3 4 6 -1 6 -9 0 -9 16 -40 35
-69 19 -29 42 -75 52 -102 10 -27 25 -52 33 -55 24 -8 50 -34 50 -50 0 -12 -4
-12 -25 2 -23 15 -24 15 -19 -1 2 -10 -1 -8 -7 5 -7 13 -18 21 -27 17 -35 -13
-62 -16 -62 -7 0 13 28 42 41 42 5 0 9 6 9 13 0 12 -230 365 -268 413 -9 11 7
-5 36 -35 29 -31 73 -82 96 -113z m-330 -202 c14 -5 16 -10 9 -17 -15 -15 56
-132 129 -214 29 -33 41 -51 28 -40 -69 57 -157 172 -215 281 l-37 69 34 -36
c18 -20 42 -39 52 -43z m397 -26 c13 -10 20 -20 14 -20 -5 -1 -18 -3 -28 -5
-15 -3 -37 21 -37 39 0 13 29 5 51 -14z m673 4 c18 -17 6 -54 -18 -54 -15 0
-27 35 -19 56 7 18 18 18 37 -2z m-287 -41 c7 -19 -43 -65 -67 -61 -19 4 -25
45 -10 64 17 20 69 18 77 -3z m183 -153 c0 -12 -22 -18 -42 -12 -31 8 -21 29
12 24 17 -2 30 -8 30 -12z m-56 -143 c6 -9 7 -19 3 -23 -9 -9 -37 15 -37 33 0
18 20 12 34 -10z m401 10 c19 -2 35 -14 35 -29 0 -4 -7 -5 -17 -1 -14 5 -15 1
-9 -35 7 -45 5 -48 -25 -31 -19 10 -20 8 -13 -58 13 -133 5 -235 -26 -358 -21
-84 -67 -192 -76 -182 -3 3 -2 12 2 19 5 7 9 15 9 18 1 3 9 30 18 61 41 137
60 265 59 403 -1 102 -13 134 -39 100 -22 -30 -33 -6 -18 43 16 52 31 66 60
57 11 -3 29 -6 40 -7z m-245 -28 c0 -11 -4 -17 -10 -14 -5 3 -10 15 -10 26 0
11 5 17 10 14 6 -3 10 -15 10 -26z m76 -248 c23 -69 20 -156 -10 -273 -13 -52
-14 -51 -13 77 1 119 -6 221 -19 285 -6 32 19 -22 42 -89z m-312 -41 c40 -61
77 -142 91 -200 3 -14 -7 2 -23 35 -41 84 -115 208 -159 263 l-37 47 43 -40
c23 -22 62 -69 85 -105z m-281 58 c105 -73 136 -107 201 -220 35 -63 21 -61
-24 2 -19 27 -83 97 -141 155 -59 58 -105 105 -102 105 3 0 32 -19 66 -42z
m420 -11 c23 -51 39 -107 52 -192 11 -65 -3 -35 -19 42 -8 39 -26 100 -40 137
-14 36 -23 66 -21 66 2 0 14 -24 28 -53z m392 -183 c-27 -104 -96 -246 -147
-304 l-30 -35 25 36 c33 46 118 250 149 353 32 110 35 69 3 -50z m-15 68 c0
-5 -6 -16 -13 -27 -16 -20 -33 -5 -23 20 6 16 36 21 36 7z m-839 -19 c13 -17
13 -17 -6 -3 -11 8 -22 16 -24 17 -2 2 0 3 6 3 6 0 17 -8 24 -17z m309 -277
c54 -28 84 -36 178 -46 116 -13 159 -30 75 -30 -53 0 -146 20 -241 51 -35 12
-65 19 -68 17 -2 -3 0 -29 5 -59 16 -92 21 -139 13 -139 -29 1 -37 23 -42 118
-4 72 -10 105 -21 118 -9 11 -20 30 -24 43 -7 23 -5 22 26 -7 19 -18 63 -47
99 -66z m360 74 c0 -5 -7 -10 -15 -10 -8 0 -15 5 -15 10 0 6 7 10 15 10 8 0
15 -4 15 -10z m-821 -544 c-2 -2 -20 -7 -39 -10 -99 -16 -237 -67 -325 -120
-76 -45 -95 -60 -95 -75 0 -6 -6 -11 -12 -11 -7 0 -26 -11 -42 -25 -55 -47
-41 -24 22 35 69 66 117 99 204 141 84 41 317 94 287 65z m58 8 c-3 -3 -12 -4
-19 -1 -8 3 -5 6 6 6 11 1 17 -2 13 -5z m427 -46 c4 -16 0 -28 -15 -40 -12
-10 -25 -18 -29 -18 -11 0 -19 37 -13 60 8 29 49 27 57 -2z m-590 -102 c-172
-58 -330 -148 -317 -183 5 -12 2 -15 -10 -10 -9 3 -19 2 -22 -3 -3 -6 -16 -15
-28 -21 -22 -12 -22 -11 1 13 l23 26 -26 20 c-25 20 -25 21 -4 27 13 5 27 1
37 -8 14 -14 21 -12 71 28 63 50 158 95 246 119 139 36 153 33 29 -8z m51
-102 c-113 -34 -269 -109 -325 -158 -20 -17 -22 -18 -10 -2 37 48 194 134 295
161 68 19 103 17 40 -1z m50 -102 c-18 -15 -85 -54 -85 -48 0 3 19 16 43 30
43 26 59 33 42 18z m210 -32 c10 -11 13 -20 7 -20 -18 0 -15 -13 14 -65 l27
-47 16 50 c19 55 47 102 60 102 5 0 0 -18 -10 -40 -11 -22 -27 -71 -35 -109
-14 -61 -14 -77 -1 -140 8 -39 10 -68 6 -65 -5 3 -9 13 -9 22 0 56 -67 239
-97 263 -10 9 -20 9 -36 1 -12 -6 -39 -13 -59 -17 -21 -3 -39 -11 -39 -18 -3
-29 4 -53 18 -64 13 -10 8 -15 -29 -34 -23 -12 -71 -41 -106 -65 -35 -24 -65
-44 -68 -44 -3 0 21 23 54 51 l59 52 -20 20 -20 20 27 24 c15 12 25 23 23 23
-9 0 -193 -103 -212 -119 -13 -10 -11 -5 5 12 35 40 134 104 181 118 40 12 42
17 42 82 0 9 5 17 11 17 18 0 36 -22 36 -43 0 -27 46 -14 85 24 35 34 46 36
70 9z m-305 -24 c0 -2 -8 -10 -17 -17 -16 -13 -17 -12 -4 4 13 16 21 21 21 13z
m148 -228 c-4 -12 -38 -21 -38 -9 0 12 12 21 28 21 7 0 12 -5 10 -12z m12
-114 c-30 -30 -68 -65 -83 -76 l-29 -21 16 31 16 32 -27 -6 c-17 -3 -36 1 -48
10 -19 14 -20 15 -1 22 10 4 37 2 60 -4 39 -10 43 -9 81 21 22 17 42 35 43 39
2 4 9 8 15 8 6 0 -13 -25 -43 -56z m-920 -89 c0 -19 -32 -36 -50 -25 -11 7
-11 11 -1 24 17 20 51 21 51 1z m390 -234 c14 -1 13 -34 -2 -49 -7 -7 -20 -12
-30 -12 -10 0 -17 -3 -17 -7 5 -33 -3 -53 -22 -53 -17 0 -19 5 -15 30 4 26 1
30 -20 31 -46 3 -49 4 -49 24 0 11 9 24 21 30 17 8 90 12 134 6z m-344 -165
c-19 -75 -27 -338 -14 -426 9 -63 -6 -28 -22 47 -16 78 -8 243 15 336 10 37
20 67 22 67 3 0 2 -11 -1 -24z m831 -52 c-3 -4 -2 -15 4 -26 5 -10 7 -23 4
-28 -3 -5 -8 -84 -10 -175 -2 -91 -6 -169 -9 -173 -3 -5 -1 -14 5 -22 6 -11 9
-3 10 25 1 68 34 235 46 235 7 0 -3 -112 -17 -207 -13 -89 -18 -148 -21 -258
-2 -71 -3 -81 -8 -45 -3 25 -6 66 -6 93 0 26 -3 47 -6 47 -9 0 -6 21 5 39 6
10 5 12 -2 7 -16 -10 -15 7 1 23 10 11 10 13 0 7 -15 -8 -15 -9 -17 141 0 61
-4 115 -8 119 -4 4 -4 12 1 18 5 6 11 37 13 68 l3 57 -55 -2 c-58 -2 -109 6
-156 23 -23 9 -25 13 -14 21 17 11 82 9 91 -3 12 -18 61 -19 79 -3 15 13 23
14 39 5 12 -6 21 -7 20 -3 -2 14 1 23 8 23 3 0 3 -3 0 -6z m-640 -36 c-3 -7
-5 -2 -5 12 0 14 2 19 5 13 2 -7 2 -19 0 -25z m478 -125 c-4 -60 -8 -121 -10
-138 -1 -16 -4 -75 -5 -130 -2 -83 -4 -93 -11 -60 -9 43 -12 254 -4 295 2 13
7 42 10 65 17 116 29 96 20 -32z m410 31 c4 -36 5 -85 1 -109 -8 -61 -39 -165
-49 -165 -5 0 -6 3 -4 8 3 4 7 30 11 57 3 28 9 71 14 96 5 25 8 75 8 112 -1
37 2 67 6 67 3 0 10 -30 13 -66z m-972 -6 c-8 -68 -8 -287 0 -328 3 -14 8 -43
11 -65 6 -38 5 -38 -5 -10 -30 81 -43 272 -25 360 2 11 7 39 11 63 10 64 17
50 8 -20z m397 22 c0 -16 -4 -30 -8 -30 -5 0 -7 14 -4 30 2 17 6 30 8 30 2 0
4 -13 4 -30z m463 -73 c-2 -56 2 -78 12 -87 18 -15 20 -31 3 -28 -7 2 -19 -38
-32 -104 -12 -59 -25 -110 -30 -115 -5 -4 -6 1 -3 12 3 11 7 61 9 110 3 81 1
93 -20 123 l-23 32 29 0 c25 0 30 5 36 31 3 17 6 49 6 71 0 21 4 37 8 34 4 -2
7 -38 5 -79z m-646 16 c-3 -10 -5 -4 -5 12 0 17 2 24 5 18 2 -7 2 -21 0 -30z
m185 -220 c7 -9 7 -17 0 -25 -13 -16 -13 -172 -1 -228 5 -24 8 -44 6 -47 -4
-4 -34 86 -42 125 -12 65 -6 283 10 369 2 10 5 25 6 33 2 8 5 -36 6 -99 2 -63
9 -121 15 -128z m-267 55 c0 -156 7 -236 25 -283 16 -41 11 -54 -6 -16 -31 72
-43 154 -39 266 2 61 6 119 9 130 2 11 5 28 5 38 1 9 2 17 4 17 1 0 2 -69 2
-152z m179 -13 c7 -182 13 -236 30 -248 8 -6 8 -10 -1 -13 -8 -4 -9 -13 -3
-30 5 -13 7 -24 5 -24 -7 0 -42 82 -51 120 -8 35 -8 257 0 295 3 11 5 31 5 44
1 13 3 22 5 20 2 -2 6 -76 10 -164z m-100 -20 c4 -88 8 -178 10 -200 3 -22 -1
-8 -8 30 -11 61 -21 367 -11 340 2 -5 6 -82 9 -170z m393 123 c-3 -8 -6 -5 -6
6 -1 11 2 17 5 13 3 -3 4 -12 1 -19z m-2 -151 c1 -141 8 -211 30 -285 28 -92
-2 -40 -36 63 -13 41 -21 250 -12 318 10 74 18 34 18 -96z m294 13 c-11 -88
-39 -185 -74 -255 -14 -27 -22 -41 -19 -30 4 11 22 81 40 155 59 236 68 259
53 130z m-465 -92 c9 -95 25 -164 52 -227 14 -31 18 -49 10 -42 -7 6 -26 39
-41 74 -24 52 -29 79 -33 167 -5 116 2 132 12 28z m-164 -247 c0 -2 -10 11
-23 30 -14 20 -21 43 -19 57 4 19 8 13 23 -30 10 -29 18 -55 19 -57z"/>
<path d="M3484 2990 c-110 -15 -218 -65 -319 -145 -74 -59 -388 -366 -381
-373 10 -10 62 28 152 111 105 97 55 42 -118 -130 -102 -102 -178 -185 -178
-196 0 -11 -5 -15 -11 -11 -6 3 -32 -14 -57 -38 -67 -64 -150 -127 -177 -134
-13 -3 -26 -13 -30 -21 -12 -32 -18 -35 185 107 30 21 112 94 181 163 135 132
282 255 401 335 87 58 168 106 168 99 0 -3 -21 -17 -47 -33 -43 -24 -190 -134
-225 -166 -7 -7 -72 -66 -143 -130 -215 -193 -325 -315 -371 -413 -14 -29 -40
-96 -58 -149 -18 -53 -35 -94 -38 -91 -13 14 35 158 91 275 17 35 31 65 31 67
0 2 -25 -13 -55 -34 -34 -24 -54 -45 -55 -58 -1 -44 -44 -112 -113 -179 -77
-75 -150 -123 -241 -160 l-55 -23 41 -62 c128 -196 387 -363 662 -425 48 -12
24 -15 -29 -5 -28 6 -61 12 -75 15 -116 23 -273 105 -470 245 -61 45 -80 54
-80 40 0 -37 91 -101 265 -189 212 -106 252 -119 410 -138 124 -15 502 -8 675
11 214 25 411 116 547 253 66 67 138 172 148 217 l7 30 -18 -25 c-10 -14 -27
-35 -39 -47 -225 -247 -255 -274 -368 -327 -65 -30 -225 -78 -241 -73 -6 2 10
9 36 15 132 33 312 132 409 224 125 118 202 288 233 510 21 156 8 375 -30 501
-116 389 -437 560 -779 416 -67 -29 -165 -91 -248 -157 -38 -30 -70 -52 -72
-50 -6 6 149 155 214 207 98 76 207 119 318 125 107 5 171 -22 347 -148 43
-31 80 -55 82 -53 7 7 -71 80 -148 137 -100 75 -198 98 -334 80z m236 -161
c38 -13 191 -108 228 -142 39 -36 24 -40 -19 -5 -136 111 -278 167 -391 153
-34 -4 -38 -3 -18 5 31 11 153 5 200 -11z m-235 1 c-3 -5 -14 -10 -23 -9 -14
0 -13 2 3 9 27 11 27 11 20 0z m-90 -30 c-3 -5 -12 -10 -18 -10 -7 0 -6 4 3
10 19 12 23 12 15 0z m155 6 c0 -2 -33 -14 -72 -26 -40 -12 -94 -33 -120 -46
-27 -13 -48 -22 -48 -19 0 9 106 58 165 76 65 19 75 21 75 15z m45 -74 c-6 -5
-32 -17 -60 -26 -78 -28 -181 -83 -286 -152 -53 -35 -99 -64 -102 -64 -12 0
101 102 145 131 54 36 174 87 223 95 21 3 47 10 59 14 28 11 32 12 21 2z
m-295 -27 c0 -2 -10 -9 -22 -15 -22 -11 -22 -10 -4 4 21 17 26 19 26 11z m470
-12 c-14 -3 -70 -16 -125 -29 -55 -14 -109 -27 -120 -30 -24 -5 79 44 115 56
14 5 54 8 90 8 36 0 54 -3 40 -5z m-522 -39 c0 -29 -25 -44 -39 -23 -6 10 -2
19 12 32 27 22 27 22 27 -9z m458 -23 c-3 -5 -18 -11 -33 -14 -58 -10 -190
-64 -212 -86 -15 -15 -30 -21 -43 -17 -12 2 -39 -4 -62 -16 -45 -22 -43 -19
26 35 25 20 53 37 62 37 8 0 40 9 70 21 30 11 86 26 123 34 37 7 69 14 71 14
2 1 1 -3 -2 -8z m82 -57 c-144 -47 -198 -64 -198 -59 0 2 38 22 84 45 76 37
186 64 209 52 5 -2 -38 -20 -95 -38z m27 -73 c-19 -17 -433 -147 -442 -138 -5
6 96 41 237 82 69 21 143 43 165 50 50 17 51 17 40 6z m75 -101 c-54 -17 -136
-35 -113 -24 21 10 138 42 153 42 8 0 -10 -8 -40 -18z m-564 -46 c-5 -13 -10
-14 -18 -6 -6 6 -8 18 -4 28 5 13 10 14 18 6 6 -6 8 -18 4 -28z m-279 -11 c6
-8 16 -12 22 -8 20 12 31 -5 19 -31 -8 -17 -15 -21 -22 -14 -14 14 -41 13 -55
-3 -13 -17 7 -37 59 -58 l35 -14 -30 -6 c-54 -12 -104 -10 -112 5 -4 8 -24 19
-43 24 l-35 10 33 1 c33 1 40 13 23 40 -8 12 -31 1 -118 -57 -59 -40 -94 -61
-78 -47 17 14 64 48 105 75 41 27 90 63 108 80 34 33 64 34 89 3z m167 21 c9
-3 16 -12 16 -19 0 -14 -59 -55 -79 -55 -18 0 -12 32 11 57 23 25 28 26 52 17z
m543 0 c-3 -3 -12 -4 -19 -1 -8 3 -5 6 6 6 11 1 17 -2 13 -5z m-47 -18 c0 -9
-30 -14 -35 -6 -4 6 3 10 14 10 12 0 21 -2 21 -4z m-105 -45 c3 -5 1 -12 -5
-16 -5 -3 -10 1 -10 9 0 18 6 21 15 7z m-278 -7 c-3 -3 -12 -4 -19 -1 -8 3 -5
6 6 6 11 1 17 -2 13 -5z m542 -8 c-15 -15 -244 -92 -357 -120 -99 -25 -95 -19
14 23 145 55 363 117 343 97z m-894 -115 c-14 -24 -230 -120 -242 -108 -2 2
23 14 54 26 32 11 87 36 123 54 36 19 66 35 68 35 2 1 1 -2 -3 -7z m-278 -47
c-3 -3 -12 -4 -19 -1 -8 3 -5 6 6 6 11 1 17 -2 13 -5z m1248 -11 c-87 -47
-298 -121 -390 -137 -16 -3 -43 -8 -60 -11 -28 -5 122 52 223 84 26 9 42 20
42 30 0 12 2 13 8 4 6 -10 16 -10 48 1 57 21 137 45 149 45 6 0 -3 -7 -20 -16z
m-1191 -98 c-21 -16 -44 -20 -44 -7 0 15 13 22 39 22 24 0 24 -1 5 -15z m1246
5 c-8 -5 -19 -10 -25 -10 -5 0 -3 5 5 10 8 5 20 10 25 10 6 0 3 -5 -5 -10z
m-90 -30 c-30 -11 -64 -19 -75 -19 -22 1 91 37 115 37 8 0 -10 -8 -40 -18z
m-107 -27 c-7 -2 -19 -2 -25 0 -7 3 -2 5 12 5 14 0 19 -2 13 -5z m-735 -158
c-5 -5 -149 -36 -173 -37 -5 -1 -21 0 -35 2 -27 3 19 12 120 25 30 4 57 9 59
11 7 6 35 5 29 -1z m509 -91 c-9 -9 -28 6 -21 18 4 6 10 6 17 -1 6 -6 8 -13 4
-17z m-693 -3 c7 -10 -33 -23 -47 -14 -10 6 11 23 30 23 6 0 14 -4 17 -9z
m1181 -1 c-13 -21 -83 -49 -185 -73 -108 -26 -180 -40 -180 -33 0 10 195 76
252 86 37 6 78 15 90 20 30 12 30 12 23 0z m-1474 -25 c16 -9 66 -18 112 -20
45 -3 111 -7 147 -11 65 -6 107 -8 125 -3 6 1 22 -1 37 -5 22 -6 25 -12 19
-29 -7 -20 -30 -28 -80 -31 -17 -1 -27 5 -30 20 -5 18 -15 20 -86 22 -83 2
-135 8 -196 21 -24 6 -47 4 -68 -5 -28 -12 -33 -10 -30 14 0 4 -17 13 -38 20
l-38 12 37 -5 c20 -3 39 -1 43 5 8 13 11 13 46 -5z m-299 -33 c63 -1 78 -6 78
-28 0 -10 -8 -13 -27 -10 -89 17 129 -73 243 -100 46 -10 70 -12 84 -4 26 14
40 13 34 -4 -4 -10 6 -18 33 -25 21 -6 45 -11 53 -11 9 0 40 -9 70 -19 38 -13
69 -18 101 -14 28 3 49 1 53 -5 7 -12 -40 -101 -82 -152 -2 -3 -10 3 -17 13
-11 15 -11 27 1 70 10 40 11 53 1 59 -11 7 -59 12 -79 9 -5 0 -8 4 -8 10 0 5
-4 8 -8 5 -5 -3 -28 -9 -51 -15 -35 -8 -42 -7 -37 5 3 8 0 14 -7 15 -60 3
-185 43 -313 100 -61 27 -114 49 -119 49 -4 0 -5 -9 -2 -21 3 -12 2 -32 -3
-45 -8 -20 -4 -28 33 -57 96 -78 280 -179 389 -213 75 -23 67 -31 -9 -9 -116
33 -233 95 -363 190 -64 46 -151 128 -126 119 26 -10 20 33 -9 62 -29 29 -31
36 -10 28 8 -4 15 -1 15 6 0 9 4 9 13 3 6 -6 38 -10 69 -11z m-127 -2 c3 -6
-1 -7 -9 -4 -18 7 -21 14 -7 14 6 0 13 -4 16 -10z m1385 -30 c0 -5 -17 -10
-37 -9 -31 0 -34 2 -18 9 28 12 55 12 55 0z m-275 -69 c3 -5 1 -12 -5 -16 -5
-3 -10 1 -10 9 0 18 6 21 15 7z m-297 -19 c3 -9 -2 -13 -14 -10 -9 1 -19 9
-22 16 -3 9 2 13 14 10 9 -1 19 -9 22 -16z m742 -16 c-62 -34 -290 -101 -290
-85 0 5 8 9 18 9 23 0 160 41 227 68 58 23 81 27 45 8z m-210 -6 c0 -5 -2 -10
-4 -10 -3 0 -8 5 -11 10 -3 6 -1 10 4 10 6 0 11 -4 11 -10z m405 0 c-3 -5 -12
-10 -18 -10 -7 0 -6 4 3 10 19 12 23 12 15 0z m-91 -35 c-17 -8 -44 -16 -60
-20 -16 -3 -6 4 21 14 57 22 86 26 39 6z m-411 -52 c-7 -2 -21 -2 -30 0 -10 3
-4 5 12 5 17 0 24 -2 18 -5z m423 -8 c-64 -48 -318 -135 -441 -150 -30 -4 -55
-11 -55 -15 0 -5 -9 -6 -20 -3 -22 6 189 80 380 133 63 18 122 36 130 41 23
13 27 10 6 -6z"/>
<path d="M1488 2315 c-2 -1 -28 -5 -58 -8 -30 -4 -95 -16 -145 -28 -49 -12
-94 -22 -100 -23 -54 -11 -75 -19 -75 -27 0 -12 12 -10 180 26 69 14 150 31
180 36 30 6 56 12 58 14 4 3 -36 14 -40 10z"/>
<path d="M2235 2278 c-4 -9 3 -49 14 -90 29 -103 40 -167 30 -174 -5 -3 -9
-15 -9 -27 0 -29 -34 -85 -74 -120 -31 -29 -180 -107 -203 -107 -17 0 -16 -5
2 -40 l15 -29 54 18 c67 24 119 56 178 112 46 45 142 169 135 176 -3 2 -19
-10 -37 -27 -38 -35 -45 -34 -30 6 13 33 8 83 -21 204 -22 89 -43 127 -54 98z"/>
<path d="M982 2180 c-188 -90 -303 -183 -445 -360 -71 -88 -115 -160 -97 -160
5 0 58 57 117 128 59 70 137 155 173 190 77 75 201 160 293 202 59 26 92 50
70 50 -4 0 -55 -23 -111 -50z"/>
<path d="M1720 712 c0 -4 -2 -57 -5 -119 -13 -354 -102 -530 -273 -538 -17 -1
-32 -5 -32 -8 0 -4 0 -16 0 -26 0 -22 13 -22 92 5 121 40 240 194 273 351 22
104 32 179 34 251 l2 82 -28 1 c-15 0 -36 2 -45 4 -10 2 -18 0 -18 -3z"/>
</g>
</svg>
