<?xml version="1.0" standalone="no"?>
<!DOCTYPE svg PUBLIC "-//W3C//DTD SVG 20010904//EN"
 "http://www.w3.org/TR/2001/REC-SVG-20010904/DTD/svg10.dtd">
<svg version="1.0" xmlns="http://www.w3.org/2000/svg"
 width="512.000000pt" height="512.000000pt" viewBox="0 0 512.000000 512.000000"
 preserveAspectRatio="xMidYMid meet">
<metadata>
Created by potrace 1.14, written by Peter Selinger 2001-2017
</metadata>
<g transform="translate(0.000000,512.000000) scale(0.100000,-0.100000)"
fill="#000000" stroke="none">
<path d="M2425 5104 c-231 -46 -416 -186 -523 -397 -91 -178 -100 -343 -42
-772 22 -165 27 -194 40 -275 5 -30 12 -73 15 -95 4 -22 8 -47 10 -55 2 -8 7
-31 10 -50 5 -30 51 -257 60 -300 25 -110 71 -289 95 -372 42 -136 42 -126 2
-178 -19 -25 -49 -74 -65 -110 -17 -36 -35 -68 -41 -72 -6 -4 -44 -14 -86 -23
-85 -19 -217 -55 -335 -92 -44 -13 -87 -26 -95 -28 -8 -2 -69 -22 -134 -44
l-119 -41 6 112 c4 62 9 127 12 143 51 284 168 524 348 714 53 56 69 89 69
143 -1 104 -123 174 -217 125 -38 -19 -132 -124 -212 -236 -129 -180 -222
-395 -268 -621 -24 -117 -30 -184 -30 -342 l0 -146 -138 -56 c-76 -31 -141
-55 -145 -52 -5 3 -10 24 -12 48 -7 78 -5 392 3 453 50 385 219 765 467 1045
107 122 177 184 386 344 115 89 52 266 -94 266 -105 0 -438 -293 -631 -554
-113 -153 -230 -363 -289 -521 -47 -125 -107 -342 -118 -425 -2 -19 -9 -60
-15 -90 -14 -70 -20 -422 -9 -520 12 -102 20 -163 25 -177 2 -7 -15 -26 -38
-42 -147 -102 -254 -266 -304 -465 -12 -49 -10 -242 4 -300 54 -234 195 -413
408 -519 104 -51 192 -71 315 -72 234 0 342 48 675 298 66 50 122 93 125 96 3
4 39 33 80 65 79 63 253 209 281 236 9 8 43 38 75 66 110 96 254 234 380 365
l72 74 139 0 139 0 185 -185 c102 -102 229 -223 282 -270 107 -95 107 -89 17
-138 -132 -71 -326 -133 -470 -150 -120 -13 -337 -7 -417 13 -44 10 -62 14
-108 20 -122 19 -211 -100 -159 -211 24 -51 64 -73 167 -94 153 -30 167 -32
317 -35 335 -5 634 77 914 253 l79 50 91 -72 c50 -39 104 -83 119 -97 l29 -26
-64 -45 c-245 -175 -508 -285 -812 -340 -175 -31 -480 -31 -651 1 -187 35
-333 80 -490 151 -88 40 -143 42 -191 5 -65 -50 -81 -122 -44 -195 17 -32 33
-45 97 -76 104 -49 179 -77 360 -135 66 -21 250 -54 368 -66 90 -9 370 -10
455 -1 426 46 848 218 1168 476 61 49 77 54 107 32 6 -5 48 -20 95 -35 129
-41 324 -41 448 2 256 86 441 289 503 551 18 76 20 229 4 307 -42 200 -156
368 -325 480 -162 107 -614 294 -1078 446 -199 65 -234 75 -425 123 l-129 32
-38 77 c-21 43 -53 95 -69 116 l-31 39 40 139 c35 122 101 390 113 463 3 14
13 64 22 112 l18 87 46 -25 c92 -51 178 -119 276 -218 151 -153 255 -321 324
-524 18 -52 39 -105 48 -118 37 -58 145 -76 202 -34 55 38 78 110 59 175 -5
17 -11 35 -12 40 -2 6 -6 19 -10 30 -5 11 -12 34 -18 50 -24 71 -98 224 -146
301 -155 246 -364 442 -627 589 l-91 50 8 50 c4 28 10 70 13 95 3 25 8 54 10
65 2 11 4 35 4 53 1 43 13 42 124 -12 143 -69 289 -163 410 -264 66 -54 234
-231 289 -303 175 -230 306 -512 364 -784 8 -34 33 -208 37 -257 9 -85 57
-140 136 -152 61 -9 143 43 157 100 7 26 -1 171 -11 229 -39 210 -53 271 -92
385 -75 223 -179 424 -317 615 -241 333 -614 624 -976 760 -41 16 -79 32 -83
35 -4 4 -10 29 -13 56 -33 301 -246 556 -539 644 -90 27 -253 34 -350 14z
m281 -307 c161 -59 276 -190 303 -346 9 -53 7 -205 -3 -266 -2 -16 -8 -55 -11
-85 -3 -30 -8 -66 -10 -80 -2 -14 -7 -45 -10 -70 -3 -25 -8 -57 -10 -71 -3
-14 -7 -43 -10 -65 -30 -244 -124 -697 -202 -968 -4 -16 -11 -17 -52 -11 -80
14 -184 14 -248 1 l-61 -13 -31 111 c-28 101 -58 227 -77 316 -4 19 -9 40 -10
45 -13 61 -55 285 -63 335 -6 36 -13 79 -16 95 -12 71 -15 93 -20 140 -3 28
-7 61 -10 75 -4 22 -9 60 -20 140 -23 166 -26 355 -7 415 36 110 124 221 212
266 108 56 260 71 356 36z m-12 -2278 c102 -50 165 -144 171 -251 12 -238
-231 -388 -449 -276 -12 6 -40 30 -63 54 -139 145 -94 385 90 473 52 25 71 29
132 27 52 -2 85 -9 119 -27z m-690 -465 c21 -63 79 -161 125 -210 l35 -36
-145 -142 c-80 -77 -178 -170 -219 -206 -40 -36 -83 -74 -95 -85 -13 -11 -44
-38 -71 -60 -26 -22 -66 -56 -89 -75 -23 -19 -56 -46 -74 -60 -18 -14 -38 -30
-44 -35 -7 -6 -66 -52 -132 -103 -66 -51 -127 -99 -136 -106 -36 -29 -166
-114 -209 -136 -124 -64 -276 -62 -409 3 -94 46 -206 188 -228 289 -3 18 -7
69 -7 113 -1 187 93 322 295 422 178 88 564 241 839 333 112 37 464 141 515
152 26 6 30 2 49 -58z m1272 32 c189 -50 509 -156 728 -241 389 -150 586 -243
664 -311 151 -132 192 -365 96 -546 -45 -82 -122 -154 -211 -195 -69 -32 -86
-36 -163 -36 -47 -1 -98 1 -115 3 -40 6 -177 77 -244 125 -152 113 -552 439
-631 515 -9 8 -43 39 -76 69 -72 66 -175 165 -272 264 l-74 74 49 61 c50 63
94 141 113 205 14 44 16 44 136 13z"/>
</g>
</svg>
